# xmcd
#
# Track frame offsets:
#	150
#	20636
#	34806
#	63093
#	81907
#	104423
#	122876
#	146139
#	194262
#
# Disc length: 2902 seconds
# Revision: 0
# Processed by: cddbd v1.5.2PL0 Copyright (c) Steve Scherf et al.
# Submitted via: dBpowerAMP V12.0
#
DISCID=7e0b5409
DTITLE=Vince Esquire - First Offense
DYEAR=2012
DGENRE=Blues-Rock
TTITLE0=Blues Is My Business
TTITLE1=Check Out Her Mama
TTITLE2=Leave My Girl Alone
TTITLE3=When You Used To Love Me
TTITLE4=Deliver Me
TTITLE5=Better This Time
TTITLE6=Freight Train
TTITLE7=Tin Pan Alley
TTITLE8=Rock Me Baby
EXTD=
EXTT0=
EXTT1=
EXTT2=
EXTT3=
EXTT4=
EXTT5=
EXTT6=
EXTT7=
EXTT8=
PLAYORDER=
